<?xml version="1.0" encoding="utf-8"?>
<!-- Generator: Adobe Illustrator 25.3.1, SVG Export Plug-In . SVG Version: 6.00 Build 0)  -->
<svg version="1.1" id="Layer_1" xmlns="http://www.w3.org/2000/svg" xmlns:xlink="http://www.w3.org/1999/xlink" x="0px" y="0px"
	 viewBox="0 0 300 83.2" style="enable-background:new 0 0 300 83.2;" xml:space="preserve">
<style type="text/css">
	.st0{fill:#231F20;}
</style>
<g>
	<path class="st0" d="M8,0.2v9.7c0,1.2-0.4,2.1-1.1,2.8c-0.7,0.7-1.7,1-2.9,1c-1.2,0-2.1-0.3-2.9-1C0.5,12,0.1,11.1,0.1,9.9h2.2
		c0,0.6,0.2,1.1,0.5,1.4c0.3,0.3,0.7,0.5,1.3,0.5c0.6,0,1-0.2,1.3-0.5c0.3-0.4,0.4-0.8,0.4-1.4V0.2H8z"/>
	<path class="st0" d="M158.2,0.2v13.4H156V4.4l-4.1,9.2h-1.5l-4.1-9.2v9.2H144V0.2h2.4l4.7,10.5l4.7-10.5H158.2z"/>
	<path class="st0" d="M222.8,2v3.9h4.6v1.8h-4.6v4.1h5.2v1.8h-7.4V0.2h7.4V2H222.8z"/>
	<path class="st0" d="M292.2,13.3c-0.7-0.3-1.3-0.8-1.7-1.3c-0.4-0.6-0.6-1.3-0.6-2h2.4c0.1,0.6,0.3,1.1,0.7,1.4
		c0.4,0.4,1,0.6,1.7,0.6c0.8,0,1.4-0.2,1.8-0.6c0.4-0.4,0.6-0.8,0.6-1.4c0-0.5-0.1-0.8-0.4-1.1c-0.3-0.3-0.6-0.5-1-0.7
		c-0.4-0.2-0.9-0.3-1.6-0.5c-0.9-0.2-1.6-0.5-2.1-0.7c-0.5-0.2-1-0.6-1.4-1.1c-0.4-0.5-0.6-1.2-0.6-2c0-0.8,0.2-1.4,0.6-2
		c0.4-0.6,0.9-1,1.6-1.3c0.7-0.3,1.5-0.5,2.4-0.5c1.3,0,2.4,0.3,3.2,1c0.8,0.7,1.3,1.5,1.4,2.7h-2.4c0-0.5-0.3-0.9-0.7-1.3
		c-0.4-0.3-1-0.5-1.7-0.5c-0.6,0-1.1,0.2-1.5,0.5c-0.4,0.3-0.6,0.8-0.6,1.4c0,0.4,0.1,0.8,0.4,1c0.3,0.3,0.6,0.5,1,0.6
		c0.4,0.2,0.9,0.3,1.6,0.5c0.9,0.2,1.6,0.5,2.2,0.7c0.6,0.2,1,0.6,1.4,1.1c0.4,0.5,0.6,1.2,0.6,2c0,0.7-0.2,1.3-0.6,1.9
		c-0.4,0.6-0.9,1.1-1.6,1.5c-0.7,0.4-1.5,0.6-2.5,0.6C293.7,13.7,292.9,13.6,292.2,13.3z"/>
	<path class="st0" d="M79.2,34.1h-5.6l-1,2.7h-2.3l4.8-13.5h2.6l4.8,13.5h-2.3L79.2,34.1z M78.6,32.3L76.4,26l-2.2,6.2H78.6z"/>
	<path class="st0" d="M64.9,60l-3.1-5.4h-1.7V60h-2.2V46.6h4.6c1,0,1.9,0.2,2.6,0.5c0.7,0.4,1.3,0.8,1.6,1.5c0.4,0.6,0.5,1.3,0.5,2
		c0,0.9-0.3,1.7-0.8,2.4c-0.5,0.7-1.3,1.2-2.3,1.5l3.3,5.6H64.9z M60.1,52.9h2.4c0.8,0,1.4-0.2,1.9-0.6c0.4-0.4,0.6-1,0.6-1.7
		c0-0.7-0.2-1.2-0.6-1.6c-0.4-0.4-1-0.6-1.9-0.6h-2.4V52.9z"/>
	<path class="st0" d="M119.1,59.3c-1.1-0.6-1.9-1.4-2.5-2.5c-0.6-1-0.9-2.2-0.9-3.5c0-1.3,0.3-2.5,0.9-3.5c0.6-1,1.4-1.9,2.5-2.4
		c1.1-0.6,2.2-0.9,3.5-0.9c1.3,0,2.4,0.3,3.5,0.9c1.1,0.6,1.9,1.4,2.5,2.4c0.6,1,0.9,2.2,0.9,3.5c0,1.3-0.3,2.5-0.9,3.5
		c-0.6,1.1-1.4,1.9-2.5,2.5c-1.1,0.6-2.2,0.9-3.5,0.9C121.3,60.2,120.1,59.9,119.1,59.3z M124.9,57.6c0.7-0.4,1.2-1,1.6-1.7
		c0.4-0.8,0.6-1.6,0.6-2.6c0-1-0.2-1.9-0.6-2.6c-0.4-0.7-0.9-1.3-1.6-1.7c-0.7-0.4-1.5-0.6-2.4-0.6c-0.9,0-1.7,0.2-2.4,0.6
		c-0.7,0.4-1.2,1-1.6,1.7s-0.6,1.6-0.6,2.6c0,1,0.2,1.9,0.6,2.6c0.4,0.8,0.9,1.3,1.6,1.7c0.7,0.4,1.5,0.6,2.4,0.6
		C123.4,58.2,124.2,58,124.9,57.6z"/>
	<path class="st0" d="M239,48.4v3.9h4.6v1.8H239v4.1h5.2V60h-7.4V46.6h7.4v1.8H239z"/>
	<path class="st0" d="M9.4,69.8v1.8H5.8v11.6H3.6V71.6H0v-1.8H9.4z"/>
	<path class="st0" d="M184,76.5l4.2,6.7h-2.5l-3-4.9l-2.8,4.9h-2.5l4.2-6.7l-4.2-6.7h2.5l3.1,4.9l2.9-4.9h2.5L184,76.5z"/>
	<path class="st0" d="M295.5,81.4h4.5v1.8h-6.7V69.8h2.2V81.4z"/>
</g>
</svg>
