<?xml version="1.0" encoding="utf-8"?>
<!-- Generator: Adobe Illustrator 25.3.1, SVG Export Plug-In . SVG Version: 6.00 Build 0)  -->
<svg version="1.1" id="Layer_1" xmlns="http://www.w3.org/2000/svg" xmlns:xlink="http://www.w3.org/1999/xlink" x="0px" y="0px"
	 viewBox="0 0 352 352" style="enable-background:new 0 0 352 352;" xml:space="preserve">
<style type="text/css">
	.st0{fill:#009ADE;}
</style>
<g>
	<path class="st0" d="M262.2,22.6L253.6,47h39l-6.9,19.5h-39l-55.2,156h19.5l20.7-58.5h39l-20.7,58.5c-1.9,5.5-5.5,10.2-10.8,14
		c-5.2,3.7-10.4,5.5-15.7,5.5H165c-5.5,0-9.5-1.8-12.1-5.5c-2.3-3.9-2.5-8.5-0.5-14L228.4,8h0.2C212,2.8,194.3,0,176,0
		C78.8,0,0,78.8,0,176c0,54,24.4,102.4,62.7,134.7L142.3,86h39l-76,214.5c-1.9,5.3-5.4,9.9-10.6,13.7c-5.2,3.9-10.5,5.8-15.8,5.8
		h-4.2c28.6,20.2,63.6,32,101.2,32c97.2,0,176-78.8,176-176C352,110.1,315.8,52.7,262.2,22.6z M168.7,66.5c-5.5,0-9.5-1.8-12.1-5.5
		c-2.3-3.9-2.5-8.5-0.5-14c1.9-5.3,5.3-9.9,10.3-13.7c5.2-3.9,10.6-5.8,16.1-5.8c5.3,0,9.2,1.9,11.7,5.8c2.5,3.9,2.8,8.4,0.9,13.7
		c-1.9,5.5-5.5,10.2-10.8,14C179.2,64.7,174,66.5,168.7,66.5z"/>
</g>
</svg>
