<?xml version="1.0" encoding="utf-8"?>
<!-- Generator: Adobe Illustrator 25.3.1, SVG Export Plug-In . SVG Version: 6.00 Build 0)  -->
<svg version="1.1" id="Layer_1" xmlns="http://www.w3.org/2000/svg" xmlns:xlink="http://www.w3.org/1999/xlink" x="0px" y="0px" shape-rendering="geometricPrecision"
	 viewBox="0 0 300 158.8" style="enable-background:new 0 0 300 158.8;" xml:space="preserve">
<style type="text/css">
	.st0{fill:#EC1C24;}
</style>
<g>
	<path class="st0" d="M150,8.8v70.6c0,39-31.6,70.6-70.6,70.6S8.8,118.4,8.8,79.4V8.8H150z"/>
	<path d="M291.2,0H8.8C3.9,0,0,3.9,0,8.8s3.9,8.8,8.8,8.8h61.8v61.8c0,4.8,3.9,8.8,8.8,8.8c4.8,0,8.8-3.9,8.8-8.8V17.5h53.1v61.8
		c0,34.1-27.7,61.8-61.8,61.8c-34.1,0-61.8-27.7-61.8-61.8c0-4.8-3.9-8.8-8.8-8.8S0,74.5,0,79.4c0,43.8,35.6,79.4,79.4,79.4
		s79.4-35.6,79.4-79.4V17.5h132.5c4.8,0,8.8-3.9,8.8-8.8S296.1,0,291.2,0z"/>
</g>
</svg>
