<?xml version="1.0" encoding="utf-8"?>
<!-- Generator: Adobe Illustrator 25.3.1, SVG Export Plug-In . SVG Version: 6.00 Build 0)  -->
<svg version="1.1" id="Layer_1" xmlns="http://www.w3.org/2000/svg" xmlns:xlink="http://www.w3.org/1999/xlink" x="0px" y="0px"
	 viewBox="0 0 300 59.6" style="enable-background:new 0 0 300 59.6;" xml:space="preserve">
<style type="text/css">
	.st0{fill:#004FA3;}
	.st1{fill:#FFF200;}
	.st2{fill-rule:evenodd;clip-rule:evenodd;fill:#004FA3;}
	.st3{fill-rule:evenodd;clip-rule:evenodd;fill:#EF3E33;}
</style>
<g>
	<g>
		<path class="st0" d="M286.2,11.6h-82.6H98.4H97h-0.5H79l-3.5,9.8c0,0.1-0.1,0.2-0.1,0.2l-5.2,14.3c-1.7,4.4,2.5,8.2,2.5,8.2
			l13.3,12.4c2.3,2.3,6.9,2.4,6.9,2.4H97h34.6h35.3h0.5c1,0,2,0,2.9-0.1c0.3,0,0.6,0,0.8-0.1c0.6-0.1,1.3-0.1,1.9-0.2
			c0.3,0,0.6-0.1,0.8-0.1c0.6-0.1,1.2-0.2,1.7-0.3c0.2,0,0.4-0.1,0.6-0.1c1.5-0.4,2.8-0.8,3.9-1.3c0.1-0.1,0.3-0.1,0.4-0.2
			c0.4-0.2,0.8-0.4,1.2-0.6c0.1-0.1,0.3-0.1,0.4-0.2c0.4-0.2,0.7-0.4,1.1-0.7c0.1-0.1,0.2-0.1,0.3-0.2c0.4-0.3,0.8-0.6,1.2-0.9
			c0,0,0,0,0.1-0.1c0.3-0.3,0.6-0.5,0.9-0.8c0.1-0.1,0.2-0.2,0.3-0.3c0.2-0.2,0.4-0.4,0.5-0.5c0.1-0.1,0.2-0.2,0.3-0.3
			c0.1-0.2,0.2-0.3,0.4-0.5c0.1-0.1,0.2-0.2,0.2-0.3c0.1-0.1,0.1-0.2,0.2-0.3c0.2-0.3,0.4-0.6,0.5-0.9c0,0,0,0,0,0l0,0
			c0.4-0.7,0.5-1.1,0.5-1.1l5.2-14.3l0,0l1.3-3.5h10l-5.4,14.9L214.2,59h53.1l10.2-27.8h19.7l2.7-7.5L286.2,11.6z"/>
		<path class="st1" d="M85.2,25.3l2.9-7.6h13.3h7.7h183.5l-2.9,7.7h-21.1L258.3,53h-50.5L218,25.3h-32l-4.3,11.5l-3.2,8.4
			c-0.7,1.3-3.8,6.5-13,7.5c-1,0.1-2,0.2-3.2,0.2c-9.9,0-23.9,0-37.1,0h-0.5c-14.9,0-28.8,0-34.9,0c-1.8,0-2.9,0-3.2,0
			c-5.5,0-8.4-5-7.8-9c0.2-1.4,1-3.3,1.5-5.1l2.7-7.7h39.2l0.3,0.1l-3.4,9.4c0,0-2,4,2.7,4.1h5.4c0,0,2.6,0,3,0
			c2.7-0.2,6.4-0.9,7.3-3.6l0.8-2.2l1.3-3.5l1.6-4.3h0l0.7-1.9c0,0,1.9-3.9-2.5-4L85.2,25.3z"/>
	</g>
	<path class="st2" d="M274.2,54.7c0-2.8,2.3-4.9,5-4.9c2.7,0,4.9,2.1,4.9,4.9c0,2.8-2.3,4.9-4.9,4.9
		C276.4,59.6,274.2,57.5,274.2,54.7L274.2,54.7z M279.1,58.8c2.2,0,4-1.7,4-4.1c0-2.3-1.7-4.1-4-4.1c-2.2,0-4,1.7-4,4.1
		C275.1,57,276.9,58.8,279.1,58.8L279.1,58.8z M278.1,57.5h-0.9v-5.6h2.1c1.3,0,2,0.5,2,1.6c0,1-0.6,1.4-1.5,1.6l1.6,2.5h-1
		l-1.5-2.4h-1V57.5L278.1,57.5z M279.1,54.4c0.7,0,1.4-0.1,1.4-0.9c0-0.7-0.6-0.8-1.2-0.8h-1.2v1.7H279.1L279.1,54.4z"/>
	<path class="st3" d="M172.7,2.6l-3.7-0.8l-0.1,0l-0.1,0l-4.2,0.1c-0.1,0-6.4,0.5-6.4,0.5c-0.1,0-9.5,1.6-9.5,1.6
		c-0.1,0-7,1.8-7,1.8l0,0l0,0l-7.3,2.8c0,0-24.5,11.1-24.5,11.1c0,0-2.1,0.9-2.1,0.9s-1.3,0.6-1.8,0.8l-0.5-0.2l1.1-2.1l3.9-5.5
		c0,0,2.1-3.3,2.1-3.3l0.1-0.1l0-0.1l1.8-5.7l0.3-0.8l-0.9-0.2L113,3.4l-0.2-0.1l-0.2,0.1l-2.4,1l-0.1,0L110,4.5l-3.8,2.7
		c0,0-3.7,3-4.9,3.9l0.1-0.4l0-0.1l0-0.1L102,7l0.1-0.5l-0.5-0.3l-0.8-0.5l-0.4-0.2L100,5.7L97.5,7L97.4,7l-0.1,0.1l-5.5,5.6
		l-2.5,1.6l2.2-5.7l0.4-1l-1.1-0.1l-2.1-0.1l-0.5,0L88,7.8l-5.1,8.6L80.5,18c-0.1,0-4.7,3.7-4.7,3.7c0,0-1.8,1.6-3.4,3.1l4.3-9.4
		l0.3-0.8l-0.8-0.3l-1.6-0.6l0,0l0.7-1.1l0.5-0.8l-0.8-0.4L72,10.1L71.7,10l-0.3,0.1l-2.1,0.8l-0.1,0L69.1,11l-3.5,2.3l0,0l0,0
		L62,16.3c0,0-2.4,2-2.4,2c0,0-1.3,1.3-1.3,1.3l-0.1,0l0,0.1l-2.2,3c0,0-4,6.2-4.6,7.2l-6.1,3.9c0,0-3.9,2.9-6.1,4.6l0.7-1.7
		l0.9-1.1l2.6-2.5c0,0,6.3-6.4,6.3-6.4c0,0,4.4-3.8,4.4-3.8l0.3-0.3l-0.1-0.4l-0.2-1.3l-0.2-1.1l-1,0.5l-11,5.8l1.3-1.6l4.6-3.2
		c-0.1,0,8.7-5.1,8.7-5.1c0,0,1.7-1,1.7-1l0.9-0.6l-0.8-0.7l-0.9-0.8l-0.3-0.2l-0.3,0L55.5,13l-0.2,0l-0.2,0.1l-2.5,1.4
		c0,0-8,3.9-8,3.9c0,0-7.4,4.3-7.4,4.3L36.9,23l-0.1,0.3l-0.5,2.4L29.3,30c0,0-7.3,4.9-7.3,4.9l-0.1,0.1L21.8,35l-2.8,3.5l0-0.1
		l3.4-4.7l0.1-0.1l0-0.1l0.2-0.5l1.4-2.4c0,0,8.1-12.5,9.2-14.2l1.7-0.8l2.9-0.9l0.7-0.2l-0.1-0.7l-0.2-1l-0.1-0.5l4-1.6
		c-0.1,0,8.2-2.3,8.2-2.3c0.3-0.1,7.6-1.9,8.5-2.2c0.6-0.2,6-1.3,9.4-2.1l0.2,0l0.2-0.1L70,3l0.3-0.2l0-0.3l0.1-1.5l0-0.9l-0.9,0.1
		l-5.3,0.5c-0.1,0-10.9,2.2-10.9,2.2l0,0l0,0l-6.7,2.1c0,0-5.6,1.9-7.3,2.4l-0.4-0.3l0-2.6l0-1.2l-1.1,0.4l-1.4,0.5L36,4.1l-0.1,0.2
		l-3.6,4l0,0l0,0l-3,4.3l-3.9,1l-0.1,0l-0.1,0l-5.7,2.5c0,0-8.1,3.5-8.1,3.5c0,0-10.9,5.1-10.9,5.1L0,25.1l0.1,0.6l0.2,1.2l0.1,0.4
		l0.4,0.2L2,28.2l0.3,0.2l0.3-0.1l2.6-0.8l0.1,0l0.1,0l9.9-4.9l5-0.9l0.1,0l0.1,0l2.5-0.8C21.9,22,19,26.9,19,26.9
		c0,0-3.9,5.8-3.9,5.8l0,0l0,0.1L9,45.5l-0.1,0.2l0,0.2l0.4,2.8l0,0.2l0.1,0.1l0.8,1.4l0.4,0.7l0.7-0.3l1.2-0.6l0.1-0.1l0.1-0.1
		l2-2.3c-0.1,0.1,10.4-9.5,10.4-9.5c-0.1,0,5.2-4,5.8-4.4l2.6-1.4l-0.1,0.9l-0.1,1l1-0.2l0.6-0.1l0.1,0l0.1-0.1l2.2-1.2l0,0
		l-0.8,1.3c0,0-3.3,5-3.3,5l-0.1,0.2l0,0.2l0,2.8l0,0.2l0.1,0.1l1.3,3.2l0.3,0.7l0.7-0.3l0.7-0.3l0.1-0.1l0.1-0.1l2.1-1.8
		c0,0,4.2-3.8,4.2-3.8c0,0,4.6-4.3,5.4-4.9l2.1-0.8l0.4,1.2l0,0.1l0,0.1l1.3,2.6l0.1,0.2l0.2,0.1l0.8,0.5l0.4,0.2l0.4-0.2l2.2-1.2
		l0.1-0.1l0.1-0.1l5.6-5.4c0,0,1.5-1.4,3-2.8c-0.6,1.1-2.2,3.9-2.2,3.9l0,0.1l0,0.1l-1.5,4L61,38.7l1,0.1l1.5,0.2l0.4,0.1l0.3-0.4
		l1.2-1.5l1.4-1.2l0,0l0,0l6.9-8.1l5.6-4.8l-1.2,2.2c0-0.1-3.8,5.8-3.8,5.8l0,0l0,0l-0.9,1.7l-1.7,2.5l-0.3,0.4l0.2,0.4l1.6,3.3
		l0.5,1l0.8-0.8l1.4-1.4l0.1-0.1l0.1-0.2l0.5-1.5l1.7-3l5.8-8.2l6-6.8l2.5-1.7l-0.5,0.8c0,0-3.8,5.8-3.8,5.8c0,0-2.6,4.2-2.6,4.2
		l-0.3,0.4l0.2,0.4l1.5,2.8l0.6,1.1l0.8-1l3.3-4.4c0,0,6.6-8.1,7.2-8.8l4.9-3.7l0,0l-0.6,1.3l-2.8,4.6c0,0.1-2,4-2,4l0,0.1l0,0.1
		l-0.8,3.4l-0.2,0.8l0.8,0.2l1.1,0.3l0.1,0l0.1,0l2.5-0.2l0.1,0l0.1-0.1l3.2-1.4c0.1,0,3.8-2.1,3.8-2.1c0,0,11-5.6,11-5.6
		c0,0,14.9-6.3,14.9-6.3c-0.1,0,12.1-4.1,12.1-4.1c0,0,5.9-1.6,6.4-1.7l4.3-0.7l8.1-0.1l4.1,0.5l0.5,0.1l0.3-0.4l0.7-1
		c0-0.1,1.2-2,1.2-2l0.6-1L172.7,2.6L172.7,2.6z M69.2,19.7l-2.1,1.5l-0.1,0l-0.1,0.1l-4.4,4.8l-6.2,5.2l0.1-1.4l1.9-3.4l4.1-5.3
		l9.1-6.5l1.4,0.1l-0.3,0.4C72.6,15.2,69.7,19,69.2,19.7L69.2,19.7z"/>
</g>
</svg>
