<?xml version="1.0" encoding="utf-8"?>
<!-- Generator: Adobe Illustrator 25.3.1, SVG Export Plug-In . SVG Version: 6.00 Build 0)  -->
<svg version="1.1" id="Layer_1" xmlns="http://www.w3.org/2000/svg" xmlns:xlink="http://www.w3.org/1999/xlink" x="0px" y="0px"
	 viewBox="0 0 218.2 150" style="enable-background:new 0 0 218.2 150;" xml:space="preserve">
<style type="text/css">
	.st0{fill:#999999;}
	.st1{fill:#334455;}
	.st2{fill:#BB2346;}
</style>
<g>
	<g>
		<path class="st0" d="M45.7,1.3H32.8V98c0,4.8-0.4,9.5-1.2,14.2c-0.8,4.8-2.3,9.1-4.5,13c-2.1,3.9-5.2,7-9.2,9.4
			c-4,2.5-9.1,3.9-15.4,4.1V150c8.8-0.2,16.3-2.2,22.8-5.9c6.4-3.8,11.5-9.2,15.1-16.3c3.6-7.1,5.3-15.6,5.3-25.4V1.3"/>
	</g>
	<g>
		<polyline class="st0" points="134,1.2 134,12.5 169.6,12.5 169.6,110.6 182.6,110.6 182.6,12.5 218.2,12.5 218.2,1.2 134,1.2 		
			"/>
	</g>
	<g>
		<path class="st1" d="M43.4,0.1h-13v96.6L29.2,111c-0.9,4.7-2.4,9-4.6,13c-2.1,3.9-5.1,7-9.1,9.5c-4.1,2.4-9.2,3.7-15.5,4v11.3
			c8.8-0.2,16.4-2.2,22.9-5.9c6.4-3.8,11.4-9.2,14.9-16.3c3.6-7,5.3-15.5,5.5-25.5V0.1"/>
	</g>
	<g>
		<polyline class="st2" points="131.5,0 131.5,11.3 167.1,11.3 167.1,109.4 180.1,109.4 180.1,11.3 215.7,11.3 215.7,0 131.5,0 		
			"/>
	</g>
</g>
</svg>
