<?xml version="1.0" encoding="utf-8"?>
<!-- Generator: Adobe Illustrator 25.3.1, SVG Export Plug-In . SVG Version: 6.00 Build 0)  -->
<svg version="1.1" id="Layer_1" xmlns="http://www.w3.org/2000/svg" xmlns:xlink="http://www.w3.org/1999/xlink" x="0px" y="0px"
	 viewBox="0 0 300 300" style="enable-background:new 0 0 300 300;" xml:space="preserve">
<style type="text/css">
	.st0{fill:#00FFFF;}
</style>
<g>
	<path class="st0" d="M102.4,102.4c0,52.6,42.6,95.2,95.2,95.2s95.2-42.6,95.2-95.2V7.1l-95.2,95.2v95.2c0,52.6-42.6,95.2-95.2,95.2
		S7.1,250.2,7.1,197.6L102.4,102.4z"/>
	<path d="M102.4,300C45.9,300,0,254.1,0,197.6c0-1.9,0.8-3.7,2.1-5.1l95.2-95.2c2-2,5.1-2.7,7.8-1.5c2.7,1.1,4.4,3.7,4.4,6.6
		c0,48.6,39.5,88.1,88.1,88.1s88.1-39.5,88.1-88.1v-78l-81,81v64.6c0,3.9-3.2,7.1-7.1,7.1s-7.1-3.2-7.1-7.1v-67.6
		c0-1.9,0.8-3.7,2.1-5.1l95.2-95.2c2-2,5.1-2.7,7.8-1.5c2.7,1.1,4.4,3.7,4.4,6.6v95.2c0,56.5-45.9,102.4-102.4,102.4
		c-51,0-93.4-37.5-101.1-86.4l-82.2,82.2c1.5,47.2,40.4,85.2,88,85.2c19.3,0,37.6-6.1,52.9-17.7c14.9-11.2,26-27.1,31.4-44.8
		c1.1-3.8,5.1-5.9,8.9-4.8c3.8,1.1,5.9,5.1,4.8,8.9c-6.2,20.6-19.2,39.1-36.4,52.1C146.1,292.9,124.8,300,102.4,300z"/>
</g>
</svg>
