<?xml version="1.0" encoding="utf-8"?>
<!-- Generator: Adobe Illustrator 25.3.1, SVG Export Plug-In . SVG Version: 6.00 Build 0)  -->
<svg version="1.1" id="Layer_1" xmlns="http://www.w3.org/2000/svg" xmlns:xlink="http://www.w3.org/1999/xlink" x="0px" y="0px"
	 viewBox="0 0 76.1 150" style="enable-background:new 0 0 76.1 150;" xml:space="preserve">
<g>
	<path d="M16.6,0c3.6,0,7.2,0,10.8,0c0,50,0,99.9,0,149.9c-3.6,0-7.2,0-10.8,0C16.6,99.9,16.6,50,16.6,0z"/>
	<path d="M0,104.7c3.6,0,7.2,0,10.8,0c0,15.1,0,30.2,0,45.3c-3.6,0-7.2,0-10.8,0C0,134.9,0,119.8,0,104.7z"/>
	<path d="M76.1,104.7c-3.6,0-7.2,0-10.8,0c0-34.9,0-69.8,0-104.7c3.6,0,7.2,0,10.8,0C76.1,34.9,76.1,69.8,76.1,104.7z"/>
	<path d="M44,104.7c-3.6,0-7.2,0-10.8,0c0-34.9,0-69.8,0-104.7c3.6,0,7.2,0,10.8,0C44,34.9,44,69.8,44,104.7z"/>
	<path d="M60,0c-3.6,0-7.2,0-10.8,0c0,50,0,100,0,150c3.6,0,7.2,0,10.8,0C60,100,60,50,60,0z"/>
</g>
</svg>
